<svg width="160" height="160" viewBox="0 0 160 160" fill="none" xmlns="http://www.w3.org/2000/svg">
  <path d="M18 106V24H100" stroke="currentColor" stroke-linecap="round" stroke-linejoin="round" stroke-opacity="0.78" stroke-width="1.6"/>
  <path d="M32 104V38H98" stroke="currentColor" stroke-linecap="round" stroke-linejoin="round" stroke-opacity="0.5" stroke-width="1.1"/>
  <path d="M44 48C56 44 66 34 72 20" stroke="currentColor" stroke-linecap="round" stroke-linejoin="round" stroke-opacity="0.7" stroke-width="1.2"/>
  <path d="M53 61C65 56 74 47 80 34" stroke="currentColor" stroke-linecap="round" stroke-linejoin="round" stroke-opacity="0.62" stroke-width="1"/>
  <path d="M68 42C65 33 66 25 72 18" stroke="currentColor" stroke-linecap="round" stroke-linejoin="round" stroke-opacity="0.6" stroke-width="1"/>
  <path d="M54 43C49 35 48 27 52 20" stroke="currentColor" stroke-linecap="round" stroke-linejoin="round" stroke-opacity="0.55" stroke-width="1"/>
  <path d="M82 28C88 28 92 24 94 18" stroke="currentColor" stroke-linecap="round" stroke-linejoin="round" stroke-opacity="0.54" stroke-width="1"/>
  <circle cx="46" cy="49" fill="currentColor" fill-opacity="0.72" r="2.6"/>
  <circle cx="56" cy="41" fill="currentColor" fill-opacity="0.64" r="2.1"/>
  <circle cx="66" cy="30" fill="currentColor" fill-opacity="0.58" r="1.8"/>
  <circle cx="76" cy="22" fill="currentColor" fill-opacity="0.52" r="1.5"/>
  <path d="M88 40C97 46 106 48 116 46" stroke="currentColor" stroke-linecap="round" stroke-linejoin="round" stroke-opacity="0.58" stroke-width="1"/>
  <path d="M98 50C106 55 115 57 124 55" stroke="currentColor" stroke-linecap="round" stroke-linejoin="round" stroke-opacity="0.5" stroke-width="1"/>
  <circle cx="115" cy="46" fill="currentColor" fill-opacity="0.58" r="1.8"/>
  <circle cx="124" cy="54" fill="currentColor" fill-opacity="0.5" r="1.5"/>
</svg>
